<svg width="25" height="45" viewBox="0 0 25 45" fill="none" xmlns="http://www.w3.org/2000/svg">
<path fill-rule="evenodd" clip-rule="evenodd" d="M3.5 12.5C3.5 7.52944 7.52944 3.5 12.5 3.5C17.4706 3.5 21.5 7.52944 21.5 12.5V25.5C21.5 29.6031 18.7543 33.0649 15 34.1482V37.2392C20.4275 36.089 24.5 31.2701 24.5 25.5V12.5C24.5 5.87258 19.1274 0.5 12.5 0.5C5.87258 0.5 0.5 5.87258 0.5 12.5V25.5C0.5 31.2701 4.57252 36.089 10 37.2392V34.1482C6.24572 33.0649 3.5 29.6031 3.5 25.5V12.5Z" fill="white"/>
<g clip-path="url(#clip0_1_72)">
<path d="M12.5342 9.96606V15.9661" stroke="white" stroke-width="3" stroke-linecap="round"/>
</g>
<path d="M12.5342 23.9661V39.9661" stroke="white" stroke-width="3" stroke-linecap="round"/>
<path d="M16 40L12.5 42.5L9 40" stroke="white" stroke-width="3" stroke-linecap="round" stroke-linejoin="round"/>
<defs>
<clipPath id="clip0_1_72">
<rect x="10" y="8" width="5" height="10" rx="2.5" fill="white"/>
</clipPath>
</defs>
</svg>
